<svg width="213" height="168" viewBox="0 0 213 168" fill="none" xmlns="http://www.w3.org/2000/svg">
<g filter="url(#filter0_d_11_321)">
<rect x="4" width="205" height="160" rx="8" fill="#B2C2BF"/>
</g>
<rect x="28" y="12" width="54.3462" height="12" fill="#8CA3A3"/>
<path d="M28 32H185V52H28V32Z" fill="#9AA08B"/>
<rect x="28" y="65" width="72.4615" height="12" fill="#8CA3A3"/>
<path d="M31.8056 73V67.36H34.1016C34.6936 67.36 35.1496 67.504 35.4696 67.792C35.7896 68.0747 35.9496 68.4693 35.9496 68.976C35.9496 69.472 35.7896 69.8667 35.4696 70.16C35.1496 70.448 34.6936 70.592 34.1016 70.592H32.4696V73H31.8056ZM32.4696 70.04H34.0376C34.4482 70.04 34.7576 69.9467 34.9656 69.76C35.1789 69.5733 35.2856 69.312 35.2856 68.976C35.2856 68.6347 35.1789 68.3707 34.9656 68.184C34.7576 67.9973 34.4482 67.904 34.0376 67.904H32.4696V70.04ZM38.2772 73.072C37.9199 73.072 37.6079 72.9893 37.3412 72.824C37.0745 72.6533 36.8665 72.4133 36.7172 72.104C36.5732 71.7947 36.5012 71.424 36.5012 70.992C36.5012 70.5547 36.5732 70.1813 36.7172 69.872C36.8665 69.5627 37.0745 69.3253 37.3412 69.16C37.6079 68.9947 37.9199 68.912 38.2772 68.912C38.6399 68.912 38.9519 69.0053 39.2132 69.192C39.4799 69.3733 39.6559 69.6213 39.7412 69.936H39.6452L39.7332 68.984H40.3572C40.3412 69.1387 40.3252 69.296 40.3092 69.456C40.2985 69.6107 40.2932 69.7627 40.2932 69.912V73H39.6452V72.056H39.7332C39.6479 72.3707 39.4719 72.6187 39.2052 72.8C38.9385 72.9813 38.6292 73.072 38.2772 73.072ZM38.4052 72.544C38.7892 72.544 39.0932 72.4133 39.3172 72.152C39.5412 71.8853 39.6532 71.4987 39.6532 70.992C39.6532 70.48 39.5412 70.0933 39.3172 69.832C39.0932 69.5653 38.7892 69.432 38.4052 69.432C38.0265 69.432 37.7225 69.5653 37.4932 69.832C37.2692 70.0933 37.1572 70.48 37.1572 70.992C37.1572 71.4987 37.2692 71.8853 37.4932 72.152C37.7225 72.4133 38.0265 72.544 38.4052 72.544ZM42.8821 73.072C42.5621 73.072 42.2634 73.0293 41.9861 72.944C41.7087 72.8533 41.4794 72.728 41.2981 72.568L41.5221 72.112C41.7194 72.2667 41.9327 72.3813 42.1621 72.456C42.3967 72.5307 42.6394 72.568 42.8901 72.568C43.2101 72.568 43.4501 72.512 43.6101 72.4C43.7754 72.2827 43.8581 72.1227 43.8581 71.92C43.8581 71.7653 43.8047 71.6427 43.6981 71.552C43.5967 71.456 43.4287 71.3813 43.1941 71.328L42.4501 71.176C42.1087 71.1013 41.8527 70.976 41.6821 70.8C41.5114 70.6187 41.4261 70.3893 41.4261 70.112C41.4261 69.8773 41.4874 69.672 41.6101 69.496C41.7327 69.3147 41.9114 69.1733 42.1461 69.072C42.3807 68.9653 42.6554 68.912 42.9701 68.912C43.2634 68.912 43.5327 68.9573 43.7781 69.048C44.0287 69.1333 44.2367 69.2587 44.4021 69.424L44.1701 69.872C44.0101 69.7173 43.8261 69.6027 43.6181 69.528C43.4154 69.448 43.2047 69.408 42.9861 69.408C42.6714 69.408 42.4341 69.472 42.2741 69.6C42.1194 69.7227 42.0421 69.8853 42.0421 70.088C42.0421 70.2427 42.0901 70.3707 42.1861 70.472C42.2874 70.568 42.4421 70.64 42.6501 70.688L43.3941 70.84C43.7567 70.92 44.0261 71.0453 44.2021 71.216C44.3834 71.3813 44.4741 71.6053 44.4741 71.888C44.4741 72.128 44.4074 72.3387 44.2741 72.52C44.1407 72.696 43.9541 72.832 43.7141 72.928C43.4794 73.024 43.2021 73.072 42.8821 73.072ZM46.8508 73.072C46.5308 73.072 46.2321 73.0293 45.9548 72.944C45.6775 72.8533 45.4481 72.728 45.2668 72.568L45.4908 72.112C45.6881 72.2667 45.9015 72.3813 46.1308 72.456C46.3655 72.5307 46.6081 72.568 46.8588 72.568C47.1788 72.568 47.4188 72.512 47.5788 72.4C47.7441 72.2827 47.8268 72.1227 47.8268 71.92C47.8268 71.7653 47.7735 71.6427 47.6668 71.552C47.5655 71.456 47.3975 71.3813 47.1628 71.328L46.4188 71.176C46.0775 71.1013 45.8215 70.976 45.6508 70.8C45.4801 70.6187 45.3948 70.3893 45.3948 70.112C45.3948 69.8773 45.4561 69.672 45.5788 69.496C45.7015 69.3147 45.8801 69.1733 46.1148 69.072C46.3495 68.9653 46.6241 68.912 46.9388 68.912C47.2321 68.912 47.5015 68.9573 47.7468 69.048C47.9975 69.1333 48.2055 69.2587 48.3708 69.424L48.1388 69.872C47.9788 69.7173 47.7948 69.6027 47.5868 69.528C47.3841 69.448 47.1735 69.408 46.9548 69.408C46.6401 69.408 46.4028 69.472 46.2428 69.6C46.0881 69.7227 46.0108 69.8853 46.0108 70.088C46.0108 70.2427 46.0588 70.3707 46.1548 70.472C46.2561 70.568 46.4108 70.64 46.6188 70.688L47.3628 70.84C47.7255 70.92 47.9948 71.0453 48.1708 71.216C48.3521 71.3813 48.4428 71.6053 48.4428 71.888C48.4428 72.128 48.3761 72.3387 48.2428 72.52C48.1095 72.696 47.9228 72.832 47.6828 72.928C47.4481 73.024 47.1708 73.072 46.8508 73.072ZM50.4774 73L48.9894 68.984H49.6774L50.9174 72.52H50.7094L51.9894 68.984H52.5494L53.8054 72.52H53.6054L54.8534 68.984H55.5094L54.0134 73H53.3894L52.0934 69.408H52.4134L51.1094 73H50.4774ZM57.9519 73.072C57.5679 73.072 57.2319 72.9893 56.9439 72.824C56.6612 72.6533 56.4425 72.4133 56.2879 72.104C56.1332 71.7893 56.0559 71.4187 56.0559 70.992C56.0559 70.56 56.1332 70.1893 56.2879 69.88C56.4425 69.5707 56.6612 69.3333 56.9439 69.168C57.2319 68.9973 57.5679 68.912 57.9519 68.912C58.3412 68.912 58.6772 68.9973 58.9599 69.168C59.2479 69.3333 59.4692 69.5707 59.6239 69.88C59.7839 70.1893 59.8639 70.56 59.8639 70.992C59.8639 71.4187 59.7839 71.7893 59.6239 72.104C59.4692 72.4133 59.2479 72.6533 58.9599 72.824C58.6772 72.9893 58.3412 73.072 57.9519 73.072ZM57.9519 72.544C58.3359 72.544 58.6399 72.4133 58.8639 72.152C59.0879 71.8853 59.1999 71.4987 59.1999 70.992C59.1999 70.48 59.0852 70.0933 58.8559 69.832C58.6319 69.5653 58.3305 69.432 57.9519 69.432C57.5732 69.432 57.2719 69.5653 57.0479 69.832C56.8239 70.0933 56.7119 70.48 56.7119 70.992C56.7119 71.4987 56.8239 71.8853 57.0479 72.152C57.2719 72.4133 57.5732 72.544 57.9519 72.544ZM60.8582 73V69.952C60.8582 69.792 60.8529 69.6293 60.8422 69.464C60.8369 69.2987 60.8262 69.1387 60.8102 68.984H61.4342L61.5142 69.96L61.4022 69.968C61.4555 69.728 61.5489 69.5307 61.6822 69.376C61.8155 69.2213 61.9729 69.1067 62.1542 69.032C62.3355 68.952 62.5249 68.912 62.7222 68.912C62.8022 68.912 62.8715 68.9147 62.9302 68.92C62.9942 68.9253 63.0529 68.9387 63.1062 68.96L63.0982 69.536C63.0182 69.5093 62.9435 69.4933 62.8742 69.488C62.8102 69.4773 62.7355 69.472 62.6502 69.472C62.4155 69.472 62.2102 69.528 62.0342 69.64C61.8635 69.752 61.7329 69.896 61.6422 70.072C61.5569 70.248 61.5142 70.4347 61.5142 70.632V73H60.8582ZM65.2536 73.072C64.9016 73.072 64.5922 72.9893 64.3256 72.824C64.0589 72.6533 63.8509 72.4133 63.7016 72.104C63.5576 71.7947 63.4856 71.424 63.4856 70.992C63.4856 70.5547 63.5576 70.1813 63.7016 69.872C63.8509 69.5627 64.0589 69.3253 64.3256 69.16C64.5922 68.9947 64.9016 68.912 65.2536 68.912C65.6162 68.912 65.9282 69.0027 66.1896 69.184C66.4562 69.3653 66.6349 69.6107 66.7256 69.92H66.6296V67.112H67.2776V73H66.6376V72.04H66.7256C66.6402 72.36 66.4642 72.6133 66.1976 72.8C65.9309 72.9813 65.6162 73.072 65.2536 73.072ZM65.3896 72.544C65.7682 72.544 66.0722 72.4133 66.3016 72.152C66.5309 71.8853 66.6456 71.4987 66.6456 70.992C66.6456 70.48 66.5309 70.0933 66.3016 69.832C66.0722 69.5653 65.7682 69.432 65.3896 69.432C65.0109 69.432 64.7069 69.5653 64.4776 69.832C64.2536 70.0933 64.1416 70.48 64.1416 70.992C64.1416 71.4987 64.2536 71.8853 64.4776 72.152C64.7069 72.4133 65.0109 72.544 65.3896 72.544Z" fill="white" fill-opacity="0.39"/>
<path d="M28 85H185V105H28V85Z" fill="#9AA08B"/>
<path d="M35.6225 95.632L35.0225 95.2L36.1985 93.676L34.3505 93.136L34.5905 92.428L36.3905 93.076L36.3185 91.168H37.0745L37.0145 93.088L38.8265 92.428L39.0545 93.136L37.2185 93.676L38.3945 95.2L37.7825 95.632L36.7145 94.036L35.6225 95.632ZM41.0717 95.632L40.4717 95.2L41.6477 93.676L39.7997 93.136L40.0397 92.428L41.8397 93.076L41.7677 91.168H42.5237L42.4637 93.088L44.2757 92.428L44.5037 93.136L42.6677 93.676L43.8437 95.2L43.2317 95.632L42.1637 94.036L41.0717 95.632ZM46.521 95.632L45.921 95.2L47.097 93.676L45.249 93.136L45.489 92.428L47.289 93.076L47.217 91.168H47.973L47.913 93.088L49.725 92.428L49.953 93.136L48.117 93.676L49.293 95.2L48.681 95.632L47.613 94.036L46.521 95.632ZM51.9702 95.632L51.3702 95.2L52.5462 93.676L50.6982 93.136L50.9382 92.428L52.7382 93.076L52.6662 91.168H53.4222L53.3622 93.088L55.1742 92.428L55.4022 93.136L53.5662 93.676L54.7422 95.2L54.1302 95.632L53.0622 94.036L51.9702 95.632ZM57.4194 95.632L56.8194 95.2L57.9954 93.676L56.1474 93.136L56.3874 92.428L58.1874 93.076L58.1154 91.168H58.8714L58.8114 93.088L60.6234 92.428L60.8514 93.136L59.0154 93.676L60.1914 95.2L59.5794 95.632L58.5114 94.036L57.4194 95.632ZM62.8686 95.632L62.2686 95.2L63.4446 93.676L61.5966 93.136L61.8366 92.428L63.6366 93.076L63.5646 91.168H64.3206L64.2606 93.088L66.0726 92.428L66.3006 93.136L64.4646 93.676L65.6406 95.2L65.0286 95.632L63.9606 94.036L62.8686 95.632ZM68.3178 95.632L67.7178 95.2L68.8938 93.676L67.0458 93.136L67.2858 92.428L69.0858 93.076L69.0138 91.168H69.7698L69.7098 93.088L71.5218 92.428L71.7498 93.136L69.9138 93.676L71.0898 95.2L70.4778 95.632L69.4098 94.036L68.3178 95.632ZM73.767 95.632L73.167 95.2L74.343 93.676L72.495 93.136L72.735 92.428L74.535 93.076L74.463 91.168H75.219L75.159 93.088L76.971 92.428L77.199 93.136L75.363 93.676L76.539 95.2L75.927 95.632L74.859 94.036L73.767 95.632ZM79.2163 95.632L78.6163 95.2L79.7923 93.676L77.9443 93.136L78.1843 92.428L79.9843 93.076L79.9123 91.168H80.6683L80.6083 93.088L82.4203 92.428L82.6483 93.136L80.8123 93.676L81.9883 95.2L81.3763 95.632L80.3083 94.036L79.2163 95.632Z" fill="#CDCFCF"/>
<path d="M28 130C28 127.791 29.7909 126 32 126H181C183.209 126 185 127.791 185 130V144C185 146.209 183.209 148 181 148H32C29.7909 148 28 146.209 28 144V130Z" fill="#498686"/>
<path d="M38.4055 47L34.7215 38.54H35.7895L39.0655 46.208H38.6935L41.9935 38.54H43.0255L39.3175 47H38.4055ZM44.0125 47V38.168H44.9845V47H44.0125ZM49.1638 47.108C48.6278 47.108 48.1598 46.984 47.7598 46.736C47.3598 46.48 47.0478 46.12 46.8238 45.656C46.6078 45.192 46.4998 44.636 46.4998 43.988C46.4998 43.332 46.6078 42.772 46.8238 42.308C47.0478 41.844 47.3598 41.488 47.7598 41.24C48.1598 40.992 48.6278 40.868 49.1638 40.868C49.7078 40.868 50.1758 41.008 50.5678 41.288C50.9678 41.56 51.2318 41.932 51.3598 42.404H51.2158L51.3478 40.976H52.2838C52.2598 41.208 52.2358 41.444 52.2118 41.684C52.1958 41.916 52.1878 42.144 52.1878 42.368V47H51.2158V45.584H51.3478C51.2198 46.056 50.9558 46.428 50.5558 46.7C50.1558 46.972 49.6918 47.108 49.1638 47.108ZM49.3558 46.316C49.9318 46.316 50.3878 46.12 50.7238 45.728C51.0598 45.328 51.2278 44.748 51.2278 43.988C51.2278 43.22 51.0598 42.64 50.7238 42.248C50.3878 41.848 49.9318 41.648 49.3558 41.648C48.7878 41.648 48.3318 41.848 47.9878 42.248C47.6518 42.64 47.4838 43.22 47.4838 43.988C47.4838 44.748 47.6518 45.328 47.9878 45.728C48.3318 46.12 48.7878 46.316 49.3558 46.316ZM56.3471 47.108C55.8191 47.108 55.3551 46.984 54.9551 46.736C54.5551 46.48 54.2431 46.12 54.0191 45.656C53.8031 45.192 53.6951 44.636 53.6951 43.988C53.6951 43.332 53.8031 42.772 54.0191 42.308C54.2431 41.844 54.5551 41.488 54.9551 41.24C55.3551 40.992 55.8191 40.868 56.3471 40.868C56.8911 40.868 57.3591 41.004 57.7511 41.276C58.1511 41.548 58.4191 41.916 58.5551 42.38H58.4111V38.168H59.3831V47H58.4231V45.56H58.5551C58.4271 46.04 58.1631 46.42 57.7631 46.7C57.3631 46.972 56.8911 47.108 56.3471 47.108ZM56.5511 46.316C57.1191 46.316 57.5751 46.12 57.9191 45.728C58.2631 45.328 58.4351 44.748 58.4351 43.988C58.4351 43.22 58.2631 42.64 57.9191 42.248C57.5751 41.848 57.1191 41.648 56.5511 41.648C55.9831 41.648 55.5271 41.848 55.1831 42.248C54.8471 42.64 54.6791 43.22 54.6791 43.988C54.6791 44.748 54.8471 45.328 55.1831 45.728C55.5271 46.12 55.9831 46.316 56.5511 46.316Z" fill="#CDCFCF"/>
<path d="M33.0517 20V14.36H33.7157V19.424H36.5637V20H33.0517ZM38.948 20.072C38.564 20.072 38.228 19.9893 37.94 19.824C37.6573 19.6533 37.4386 19.4133 37.284 19.104C37.1293 18.7893 37.052 18.4187 37.052 17.992C37.052 17.56 37.1293 17.1893 37.284 16.88C37.4386 16.5707 37.6573 16.3333 37.94 16.168C38.228 15.9973 38.564 15.912 38.948 15.912C39.3373 15.912 39.6733 15.9973 39.956 16.168C40.244 16.3333 40.4653 16.5707 40.62 16.88C40.78 17.1893 40.86 17.56 40.86 17.992C40.86 18.4187 40.78 18.7893 40.62 19.104C40.4653 19.4133 40.244 19.6533 39.956 19.824C39.6733 19.9893 39.3373 20.072 38.948 20.072ZM38.948 19.544C39.332 19.544 39.636 19.4133 39.86 19.152C40.084 18.8853 40.196 18.4987 40.196 17.992C40.196 17.48 40.0813 17.0933 39.852 16.832C39.628 16.5653 39.3266 16.432 38.948 16.432C38.5693 16.432 38.268 16.5653 38.044 16.832C37.82 17.0933 37.708 17.48 37.708 17.992C37.708 18.4987 37.82 18.8853 38.044 19.152C38.268 19.4133 38.5693 19.544 38.948 19.544ZM43.6383 21.784C43.2916 21.784 42.9716 21.7413 42.6783 21.656C42.3849 21.5707 42.1209 21.44 41.8863 21.264L42.0783 20.776C42.2436 20.8933 42.4063 20.9867 42.5663 21.056C42.7263 21.1253 42.8916 21.176 43.0623 21.208C43.2329 21.2453 43.4143 21.264 43.6063 21.264C44.0009 21.264 44.2996 21.16 44.5023 20.952C44.7049 20.744 44.8063 20.448 44.8063 20.064V18.888H44.8863C44.8009 19.2027 44.6249 19.4533 44.3583 19.64C44.0916 19.8213 43.7796 19.912 43.4223 19.912C43.0543 19.912 42.7343 19.832 42.4623 19.672C42.1956 19.5067 41.9876 19.2747 41.8383 18.976C41.6943 18.672 41.6223 18.3147 41.6223 17.904C41.6223 17.4987 41.6943 17.1467 41.8383 16.848C41.9876 16.5493 42.1956 16.32 42.4623 16.16C42.7343 15.9947 43.0543 15.912 43.4223 15.912C43.7849 15.912 44.0969 16.0027 44.3583 16.184C44.6249 16.3653 44.8009 16.616 44.8863 16.936L44.8063 16.856L44.8783 15.984H45.5103C45.4889 16.1387 45.4729 16.296 45.4623 16.456C45.4516 16.6107 45.4463 16.7627 45.4463 16.912V19.976C45.4463 20.5733 45.2916 21.024 44.9823 21.328C44.6783 21.632 44.2303 21.784 43.6383 21.784ZM43.5423 19.384C43.9316 19.384 44.2383 19.256 44.4623 19C44.6863 18.7387 44.7983 18.3733 44.7983 17.904C44.7983 17.4347 44.6863 17.072 44.4623 16.816C44.2383 16.56 43.9316 16.432 43.5423 16.432C43.1583 16.432 42.8516 16.56 42.6223 16.816C42.3929 17.072 42.2783 17.4347 42.2783 17.904C42.2783 18.3733 42.3929 18.7387 42.6223 19C42.8516 19.256 43.1583 19.384 43.5423 19.384ZM46.6906 20V15.984H47.3386V20H46.6906ZM46.6106 15.072V14.344H47.4106V15.072H46.6106ZM48.5968 20V16.912C48.5968 16.7627 48.5888 16.6107 48.5728 16.456C48.5622 16.296 48.5488 16.1387 48.5328 15.984H49.1568L49.2368 16.864H49.1408C49.2582 16.5547 49.4448 16.32 49.7008 16.16C49.9622 15.9947 50.2635 15.912 50.6048 15.912C51.0795 15.912 51.4368 16.04 51.6768 16.296C51.9222 16.5467 52.0448 16.944 52.0448 17.488V20H51.3968V17.528C51.3968 17.1493 51.3195 16.8747 51.1648 16.704C51.0155 16.528 50.7808 16.44 50.4608 16.44C50.0875 16.44 49.7915 16.5547 49.5728 16.784C49.3542 17.0133 49.2448 17.32 49.2448 17.704V20H48.5968Z" fill="white" fill-opacity="0.39"/>
<path d="M82.3431 142V133.54H83.3391V141.136H87.6111V142H82.3431ZM91.3916 142.108C90.4476 142.108 89.7036 141.836 89.1596 141.292C88.6156 140.74 88.3436 139.976 88.3436 139C88.3436 138.368 88.4636 137.82 88.7036 137.356C88.9436 136.884 89.2796 136.52 89.7116 136.264C90.1436 136 90.6396 135.868 91.1996 135.868C91.7516 135.868 92.2156 135.984 92.5916 136.216C92.9676 136.448 93.2556 136.78 93.4556 137.212C93.6556 137.636 93.7556 138.14 93.7556 138.724V139.084H89.0876V138.472H93.1196L92.9156 138.628C92.9156 137.988 92.7716 137.488 92.4836 137.128C92.1956 136.768 91.7676 136.588 91.1996 136.588C90.5996 136.588 90.1316 136.8 89.7956 137.224C89.4596 137.64 89.2916 138.204 89.2916 138.916V139.024C89.2916 139.776 89.4756 140.348 89.8436 140.74C90.2196 141.124 90.7436 141.316 91.4156 141.316C91.7756 141.316 92.1116 141.264 92.4236 141.16C92.7436 141.048 93.0476 140.868 93.3356 140.62L93.6716 141.304C93.4076 141.56 93.0716 141.76 92.6636 141.904C92.2636 142.04 91.8396 142.108 91.3916 142.108ZM97.3789 142.108C96.7869 142.108 96.3349 141.94 96.0229 141.604C95.7109 141.26 95.5549 140.744 95.5549 140.056V136.732H94.3789V135.976H95.5549V134.332L96.5269 134.056V135.976H98.2549V136.732H96.5269V139.948C96.5269 140.428 96.6069 140.772 96.7669 140.98C96.9349 141.18 97.1829 141.28 97.5109 141.28C97.6629 141.28 97.7989 141.268 97.9189 141.244C98.0389 141.212 98.1469 141.176 98.2429 141.136V141.952C98.1309 142 97.9949 142.036 97.8349 142.06C97.6829 142.092 97.5309 142.108 97.3789 142.108ZM102.687 142V133.54H103.551L106.947 141.208H106.599L109.995 133.54H110.859V142H109.947V134.824H110.307L107.103 142H106.443L103.227 134.824H103.587V142H102.687ZM115.544 142.108C114.6 142.108 113.856 141.836 113.312 141.292C112.768 140.74 112.496 139.976 112.496 139C112.496 138.368 112.616 137.82 112.856 137.356C113.096 136.884 113.432 136.52 113.864 136.264C114.296 136 114.792 135.868 115.352 135.868C115.904 135.868 116.368 135.984 116.744 136.216C117.12 136.448 117.408 136.78 117.608 137.212C117.808 137.636 117.908 138.14 117.908 138.724V139.084H113.24V138.472H117.272L117.068 138.628C117.068 137.988 116.924 137.488 116.636 137.128C116.348 136.768 115.92 136.588 115.352 136.588C114.752 136.588 114.284 136.8 113.948 137.224C113.612 137.64 113.444 138.204 113.444 138.916V139.024C113.444 139.776 113.628 140.348 113.996 140.74C114.372 141.124 114.896 141.316 115.568 141.316C115.928 141.316 116.264 141.264 116.576 141.16C116.896 141.048 117.2 140.868 117.488 140.62L117.824 141.304C117.56 141.56 117.224 141.76 116.816 141.904C116.416 142.04 115.992 142.108 115.544 142.108ZM122.632 142V133.54H123.628V142H122.632ZM125.63 142V137.368C125.63 137.144 125.618 136.916 125.594 136.684C125.578 136.444 125.558 136.208 125.534 135.976H126.47L126.59 137.296H126.446C126.622 136.832 126.902 136.48 127.286 136.24C127.678 135.992 128.13 135.868 128.642 135.868C129.354 135.868 129.89 136.06 130.25 136.444C130.618 136.82 130.802 137.416 130.802 138.232V142H129.83V138.292C129.83 137.724 129.714 137.312 129.482 137.056C129.258 136.792 128.906 136.66 128.426 136.66C127.866 136.66 127.422 136.832 127.094 137.176C126.766 137.52 126.602 137.98 126.602 138.556V142H125.63Z" fill="#CDCFCF"/>
<defs>
<filter id="filter0_d_11_321" x="0" y="0" width="213" height="168" filterUnits="userSpaceOnUse" color-interpolation-filters="sRGB">
<feFlood flood-opacity="0" result="BackgroundImageFix"/>
<feColorMatrix in="SourceAlpha" type="matrix" values="0 0 0 0 0 0 0 0 0 0 0 0 0 0 0 0 0 0 127 0" result="hardAlpha"/>
<feOffset dy="4"/>
<feGaussianBlur stdDeviation="2"/>
<feComposite in2="hardAlpha" operator="out"/>
<feColorMatrix type="matrix" values="0 0 0 0 0 0 0 0 0 0 0 0 0 0 0 0 0 0 0.25 0"/>
<feBlend mode="normal" in2="BackgroundImageFix" result="effect1_dropShadow_11_321"/>
<feBlend mode="normal" in="SourceGraphic" in2="effect1_dropShadow_11_321" result="shape"/>
</filter>
</defs>
</svg>

